<?xml version="1.0" encoding="UTF-8"?><svg id="Layer_1" xmlns="http://www.w3.org/2000/svg" viewBox="0 0 61.98 62.93"><defs><style>.cls-1{fill:#53c1de;}</style></defs><path class="cls-1" d="m30.99,62.93c16.93,0,30.99-14.25,30.99-31.47S47.87,0,30.94,0,0,14.27,0,31.47s14.03,31.47,30.99,31.47Zm0-5.24c-14.34,0-25.79-11.66-25.79-26.22S16.62,5.24,30.96,5.24s25.84,11.69,25.86,26.22c.02,14.56-11.52,26.22-25.84,26.22Zm-.02-24.52c.53,0,1.1-.22,1.68-.81l13.41-13.6c-.36-.31-1.25-.62-2.56-.62h-25.07c-1.27,0-2.18.31-2.56.62l13.41,13.6c.6.62,1.17.81,1.7.81Zm-6.01-1.63l-10.58-10.73c-.19.31-.26,1.05-.26,2.13v17.1c0,1.08.1,1.84.31,2.23l10.54-10.7v-.02Zm11.9,0l10.54,10.7c.22-.36.31-1.15.31-2.23v-17.1c0-1.08-.1-1.82-.24-2.13l-10.61,10.73v.02Zm-5.92,4.07c-1.1,0-1.94-.41-3.14-1.51l-.98-.93-10.92,11.09c.36.34,1.22.55,2.49.55h25.05c1.27,0,2.13-.22,2.49-.55l-10.92-11.09-.98.93c-1.17,1.1-2.04,1.51-3.14,1.51h.05Z"/></svg>