<?xml version="1.0" encoding="UTF-8"?><svg id="Layer_1" xmlns="http://www.w3.org/2000/svg" viewBox="0 0 800 800"><defs><style>.cls-1{fill:rgba(83,193,222,0);}.cls-2{fill:#53c1de;}</style></defs><path class="cls-2" d="m711.11,88.89H88.89c-24.55,0-44.44,19.9-44.44,44.44v533.33c0,24.55,19.9,44.44,44.44,44.44h622.22c24.55,0,44.44-19.9,44.44-44.44V133.33c0-24.55-19.9-44.44-44.44-44.44ZM88.89,666.67V133.33h622.22v533.33H88.89Z"/><path class="cls-2" d="m198.22,311.11c36.82,0,66.67-29.85,66.67-66.67s-29.85-66.67-66.67-66.67-66.67,29.85-66.67,66.67,29.85,66.67,66.67,66.67Zm0-102.22c19.64-.12,35.65,15.7,35.78,35.33.12,19.64-15.7,35.65-35.33,35.78s-35.65-15.7-35.78-35.33c0-.07,0-.15,0-.22.12-19.46,15.87-35.21,35.33-35.33v-.22Z"/><path class="cls-2" d="m506.22,341.56l-120,120-88.89-88.89c-8.67-8.62-22.67-8.62-31.33,0l-134.44,136.22v62.89l150.89-150.89,73.11,72-83.33,83.33h61.11l187.78-187.78,145.56,144.89v-62.67l-129.11-129.11c-8.67-8.62-22.67-8.62-31.33,0Z"/><rect class="cls-1" width="800" height="800"/></svg>