<?xml version="1.0" encoding="UTF-8"?><svg id="Layer_1" xmlns="http://www.w3.org/2000/svg" viewBox="0 0 61.28 61.31"><defs><style>.cls-1{fill:#53c1de;}</style></defs><path class="cls-1" d="m30.63,61.31c16.74,0,30.65-13.89,30.65-30.65S47.34,0,30.6,0,0,13.91,0,30.65s13.89,30.65,30.65,30.65h-.02Zm0-5.1c-14.18,0-25.5-11.35-25.5-25.53S16.43,5.15,30.6,5.15s25.53,11.37,25.58,25.53c.02,14.18-11.4,25.53-25.53,25.53h-.02Zm-12.36-9.82c.48,0,.93-.19,1.22-.48l10.37-10.37c.31-.26.55-.43.79-.43.22,0,.45.14.72.43l10.35,10.37c.31.31.81.48,1.27.48.98,0,1.65-.67,1.65-1.65,0-.43-.12-.81-.26-1.22l-11.52-29.36c-.48-1.22-1.22-1.8-2.2-1.8s-1.75.57-2.23,1.8l-11.54,29.36c-.14.43-.24.81-.24,1.22,0,.98.62,1.65,1.63,1.65Z"/></svg>