<?xml version="1.0" encoding="UTF-8"?><svg id="Layer_1" xmlns="http://www.w3.org/2000/svg" viewBox="0 0 61.69 61.71"><defs><style>.cls-1{fill:#53c1de;}</style></defs><path class="cls-1" d="m30.84,61.71c16.86,0,30.84-13.99,30.84-30.84S47.68,0,30.82,0,0,14.01,0,30.84s13.99,30.84,30.84,30.84v.02Zm0-5.15c-14.27,0-25.67-11.42-25.67-25.72S16.55,5.15,30.82,5.15s25.72,11.47,25.74,25.72c.02,14.27-11.47,25.72-25.72,25.72v-.02Zm-7.26-18.58c7.04,7.09,16.02,11.57,21.36,6.25.22-.22.36-.38.5-.6,1.39-1.53,1.8-3.59,0-4.93-1.39-1.01-2.87-2.04-5.39-3.78-1.75-1.25-2.9-.93-4.26.43l-1.22,1.17c-.36.34-.93.31-1.34.07-1.05-.65-2.85-2.06-4.53-3.76-1.68-1.7-3.19-3.54-3.76-4.53-.22-.34-.36-.89.07-1.27l1.17-1.27c1.36-1.41,1.65-2.51.38-4.29l-3.71-5.27c-1.27-1.8-3.11-1.46-5.15.07-.14.12-.26.24-.38.36-5.32,5.32-.81,14.3,6.23,21.36l.02-.02Z"/></svg>