<?xml version="1.0" encoding="UTF-8"?><svg id="Layer_1" xmlns="http://www.w3.org/2000/svg" viewBox="0 0 237 237"><defs><style>.cls-1{fill:#53c1de;}.cls-2,.cls-3{fill:none;stroke:#53c1de;stroke-miterlimit:10;}.cls-3{stroke-width:18px;}</style></defs><g><path class="cls-3" d="m118.5,228c59.8,0,109.5-49.6,109.5-109.5S178.19,9,118.39,9,9,58.7,9,118.5s49.6,109.5,109.5,109.5Z"/><path class="cls-2" d="m118.07,220.12c-56.19,0-101.07-45-101.07-101.19S61.76,17.74,117.95,17.74s101.19,45.12,101.31,101.19c.12,56.19-45.12,101.19-101.19,101.19Z"/></g><g id="SVGRepo_iconCarrier"><path class="cls-1" d="m61.67,178.92h112.81c13.62,0,20.46-6.78,20.46-20.2v-79.57c0-13.42-6.84-20.2-20.46-20.2H61.67c-13.56,0-20.46,6.71-20.46,20.2v79.57c0,13.49,6.91,20.2,20.46,20.2Zm-9.97-99.25c0-6.78,3.65-10.23,10.17-10.23h112.42c6.45,0,10.17,3.45,10.17,10.23v20.33H51.7v-20.33Zm21.31,5.02c0-3.13-2.61-5.87-5.8-5.87s-5.87,2.74-5.87,5.87,2.61,5.8,5.87,5.8,5.8-2.74,5.8-5.8Zm19.22,0c0-3.13-2.61-5.87-5.8-5.87s-5.8,2.74-5.8,5.87,2.61,5.8,5.8,5.8,5.8-2.74,5.8-5.8Zm19.22,0c0-3.13-2.61-5.87-5.8-5.87s-5.8,2.74-5.8,5.87,2.61,5.8,5.8,5.8,5.8-2.74,5.8-5.8Zm-49.59,83.74c-6.52,0-10.17-3.45-10.17-10.23v-48.68h132.75v48.68c0,6.78-3.71,10.23-10.17,10.23H61.86Z"/></g></svg>